HIERARCHY
ROOT Hips
{
	OFFSET 62.090000 4.436574 96.995796
	CHANNELS 6 Xposition Yposition Zposition Xrotation Yrotation Zrotation
	JOINT spine
	{
		OFFSET 0.000000 -0.458068 7.965683
		CHANNELS 3 Xrotation Yrotation Zrotation
		JOINT spine1
		{
			OFFSET 0.000000 -0.000002 10.243103
			CHANNELS 3 Xrotation Yrotation Zrotation
			JOINT spine2
			{
				OFFSET 0.000000 -0.000001 9.814751
				CHANNELS 3 Xrotation Yrotation Zrotation
				JOINT Neck
				{
					OFFSET 0.000000 -1.201384 25.198593
					CHANNELS 3 Xrotation Yrotation Zrotation
					JOINT Head
					{
						OFFSET 0.000000 -0.000001 7.613144
						CHANNELS 3 Xrotation Yrotation Zrotation
						End Site
						{
							OFFSET 0.000000 6.077327 18.428101
						}
					}
				}
				JOINT RightShoulder
				{
					OFFSET -4.132702 0.575449 10.599197
					CHANNELS 3 Xrotation Yrotation Zrotation
					JOINT RightArm
					{
						OFFSET 0.000000 -0.000002 13.901794
						CHANNELS 3 Xrotation Yrotation Zrotation
						JOINT RightArmRoll
						{
							OFFSET 0.000000 -0.000001 7.017883
							CHANNELS 3 Xrotation Yrotation Zrotation
							JOINT RightForeArm
							{
								OFFSET 0.000000 -0.000003 20.440598
								CHANNELS 3 Xrotation Yrotation Zrotation
								JOINT RightForeArmRoll
								{
									OFFSET 0.000000 -0.000001 7.875168
									CHANNELS 3 Xrotation Yrotation Zrotation
									JOINT RightHand
									{
										OFFSET 0.000000 -0.000003 15.803696
										CHANNELS 3 Xrotation Yrotation Zrotation
										End Site
										{
											OFFSET 0.000000 0.000000 0.100006
										}
									}
								}
							}
						}
					}
				}
				JOINT LeftShoulder
				{
					OFFSET 4.132702 0.575449 10.599197
					CHANNELS 3 Xrotation Yrotation Zrotation
					JOINT LeftArm
					{
						OFFSET 0.000000 -0.000002 13.901794
						CHANNELS 3 Xrotation Yrotation Zrotation
						JOINT LeftArmRoll
						{
							OFFSET 0.000000 -0.000001 7.017883
							CHANNELS 3 Xrotation Yrotation Zrotation
							JOINT LeftForeArm
							{
								OFFSET 0.000000 -0.000003 20.440598
								CHANNELS 3 Xrotation Yrotation Zrotation
								JOINT LeftForeArmRoll
								{
									OFFSET 0.000000 -0.000001 7.875168
									CHANNELS 3 Xrotation Yrotation Zrotation
									JOINT LeftHand
									{
										OFFSET 0.000000 -0.000003 15.803696
										CHANNELS 3 Xrotation Yrotation Zrotation
										End Site
										{
											OFFSET 0.000000 0.000000 0.100006
										}
									}
								}
							}
						}
					}
				}
			}
		}
	}
	JOINT RightUpLeg
	{
		OFFSET -7.060482 1.086100 -1.294701
		CHANNELS 3 Xrotation Yrotation Zrotation
		JOINT RightUpLegRoll
		{
			OFFSET 0.000000 -0.000003 18.530800
			CHANNELS 3 Xrotation Yrotation Zrotation
			JOINT RightLeg
			{
				OFFSET 0.000000 0.000004 -22.947601
				CHANNELS 3 Xrotation Yrotation Zrotation
				JOINT RightLegRoll
				{
					OFFSET 0.000000 -0.000004 23.022598
					CHANNELS 3 Xrotation Yrotation Zrotation
					JOINT RightFoot
					{
						OFFSET 0.000000 -0.000003 19.162498
						CHANNELS 3 Xrotation Yrotation Zrotation
						JOINT RightToeBase
						{
							OFFSET 0.000000 -0.000002 16.018799
							CHANNELS 3 Xrotation Yrotation Zrotation
							End Site
							{
								OFFSET 0.006790 0.894206 7.757812
							}
						}
					}
				}
			}
		}
	}
	JOINT LeftUpLeg
	{
		OFFSET 7.060482 1.086100 -1.294701
		CHANNELS 3 Xrotation Yrotation Zrotation
		JOINT LeftUpLegRoll
		{
			OFFSET 0.000000 -0.000003 18.530899
			CHANNELS 3 Xrotation Yrotation Zrotation
			JOINT LeftLeg
			{
				OFFSET 0.000000 -0.000004 22.947495
				CHANNELS 3 Xrotation Yrotation Zrotation
				JOINT LeftLegRoll
				{
					OFFSET 0.000000 -0.000004 23.235504
					CHANNELS 3 Xrotation Yrotation Zrotation
					JOINT LeftFoot
					{
						OFFSET 0.000000 -0.000003 18.949600
						CHANNELS 3 Xrotation Yrotation Zrotation
						JOINT LeftToeBase
						{
							OFFSET 0.000000 -0.000003 16.018799
							CHANNELS 3 Xrotation Yrotation Zrotation
							End Site
							{
								OFFSET -0.030426 0.894205 7.757812
							}
						}
					}
				}
			}
		}
	}
}
MOTION
Frames: 9
Frame Time: 0.041667
56.402702 11.500177 105.708984 1.436798 -2.309097 7.929529 -1.019558 0.225461 0.033768 1.963562 0.457446 0.069642 3.608655 0.458247 0.064159 -4.127449 9.348253 0.633686 10.619547 -3.412300 -0.531315 -15.856334 -50.303711 -18.553470 -2.664789 -63.665587 50.499021 0.000000 -0.000007 -0.000001 54.716946 6.211622 -1.583639 -0.000010 0.000030 -3.006861 -5.000198 -7.998737 0.000151 -2.189717 58.493761 2.549839 -136.959404 127.085724 100.289799 0.000005 0.000007 0.000000 52.302553 -5.603244 2.576090 0.000002 0.000000 3.006299 -5.000180 7.998784 -0.000140 -2.847140 -169.317890 5.394623 179.999991 -0.000004 -1.631003 171.413788 0.133487 -0.546841 -0.000001 0.000002 -0.266192 63.408997 7.074494 2.059661 25.456948 -7.355613 -0.000003 -9.308388 170.473735 -1.569008 -0.000021 -0.000004 -1.074891 -18.846640 -0.114556 0.545162 -0.000001 -0.000004 -0.363936 70.368543 -6.887949 -2.047301 25.456957 7.355616 -0.000012 
56.468006 11.528276 105.728989 1.443845 -2.282548 7.901346 -1.010535 0.223682 0.033283 1.981602 0.453565 0.069014 3.626694 0.454357 0.063578 -4.331646 8.887498 0.600972 10.700970 -2.900388 -0.588336 -15.956008 -50.737531 -18.685289 -2.617096 -63.847659 50.211791 -0.000003 -0.000007 0.000000 54.289595 6.220104 -1.623131 -0.000014 0.000031 -3.006863 -5.000199 -7.998734 0.000155 -2.064699 58.655670 2.420063 -136.909762 126.669956 100.620107 0.000003 0.000006 0.000002 51.636773 -5.504446 2.540267 -0.000000 0.000001 3.006299 -5.000177 7.998782 -0.000142 -2.941561 -169.526511 5.352285 179.999991 -0.000004 -1.616004 171.281829 0.015821 -0.558574 -0.000001 0.000002 -0.249279 63.473856 7.066943 2.072246 25.456950 -7.355612 -0.000002 -9.349447 170.618016 -1.557948 -0.000021 -0.000002 -1.073438 -18.928602 -0.028045 0.559796 -0.000002 -0.000004 -0.364111 70.382190 -6.886535 -2.050307 25.456953 7.355617 -0.000012 
56.438908 11.489376 105.788994 1.452490 -2.257407 7.875823 -1.000775 0.222151 0.032366 2.001132 0.450035 0.067608 3.646233 0.450813 0.062216 -4.570452 8.456176 0.571344 10.811730 -2.428645 -0.642036 -16.065536 -51.170329 -18.828781 -2.547137 -64.030920 49.944249 -0.000003 -0.000003 0.000000 53.850031 6.227765 -1.661846 -0.000012 0.000032 -3.006861 -5.000200 -7.998735 0.000150 -1.948158 58.816528 2.300636 -136.835081 126.266975 100.931324 0.000004 0.000004 0.000002 50.957531 -5.401146 2.503886 -0.000001 -0.000001 3.006300 -5.000182 7.998782 -0.000137 -3.045864 -169.732223 5.310990 179.999991 -0.000005 -1.601005 171.128819 -0.102761 -0.571042 -0.000001 0.000002 -0.231651 63.547636 7.059424 2.084265 25.456950 -7.355613 -0.000001 -9.391647 170.767228 -1.544554 -0.000020 -0.000003 -1.072250 -19.014410 0.056876 0.574487 -0.000003 -0.000004 -0.364149 70.394197 -6.885250 -2.053041 25.456953 7.355615 -0.000008 
56.544403 11.449474 105.809982 1.462844 -2.233425 7.852370 -0.990408 0.220831 0.031099 2.021872 0.446806 0.065570 3.666973 0.447558 0.060215 -4.839595 8.052799 0.543805 10.948114 -1.994634 -0.693270 -16.183761 -51.601557 -18.982532 -2.455205 -64.215308 49.696381 -0.000001 -0.000006 -0.000001 53.398890 6.234773 -1.699715 -0.000009 0.000032 -3.006859 -5.000199 -7.998735 0.000154 -1.839753 58.976245 2.191090 -136.737109 125.875865 101.224530 0.000001 0.000005 0.000004 50.266405 -5.293653 2.467038 -0.000001 -0.000001 3.006303 -5.000180 7.998783 -0.000142 -3.159188 -169.934000 5.270286 179.999991 -0.000005 -1.584995 170.957641 -0.220230 -0.585051 -0.000001 0.000003 -0.213465 63.629127 7.051933 2.095902 25.456948 -7.355611 -0.000001 -9.435512 170.918435 -1.528557 -0.000021 -0.000004 -1.071280 -19.103558 0.140131 0.589216 -0.000001 -0.000005 -0.364076 70.404736 -6.884078 -2.055587 25.456953 7.355616 -0.000009 
56.497009 11.439380 105.837990 1.475009 -2.210360 7.830379 -0.979584 0.219680 0.029564 2.043522 0.443821 0.063043 3.688622 0.444543 0.057725 -5.134853 7.675893 0.517546 11.106962 -1.595883 -0.742694 -16.309843 -52.031124 -19.145459 -2.341636 -64.400768 49.468386 -0.000002 -0.000003 0.000000 52.937132 6.241201 -1.736653 -0.000011 0.000032 -3.006861 -5.000200 -7.998735 0.000154 -1.739172 59.134576 2.090978 -136.616938 125.495737 101.499616 -0.000003 0.000006 0.000002 49.564989 -5.182253 2.429804 0.000002 -0.000001 3.006299 -5.000182 7.998782 -0.000139 -3.280640 -170.133879 5.229814 179.999991 -0.000005 -1.568999 170.771135 -0.337569 -0.599852 -0.000001 0.000003 -0.194875 63.717271 7.044504 2.106934 25.456945 -7.355613 -0.000002 -9.481399 171.073590 -1.510527 -0.000021 -0.000004 -1.070500 -19.195948 0.221645 0.603972 -0.000002 -0.000003 -0.363913 70.413923 -6.882951 -2.058121 25.456948 7.355615 -0.000011 
56.476006 11.481978 105.856987 1.489086 -2.187973 7.809263 -0.968454 0.218661 0.027835 2.065792 0.441026 0.060169 3.710891 0.441715 0.054886 -5.452006 7.323961 0.491916 11.284737 -1.229921 -0.790820 -16.442652 -52.458489 -19.316125 -2.206915 -64.587341 49.260424 -0.000001 -0.000006 -0.000001 52.465354 6.247072 -1.772422 -0.000010 0.000028 -3.006859 -5.000198 -7.998736 0.000150 -1.646093 59.291520 1.999844 -136.476605 125.125473 101.757716 -0.000001 0.000009 -0.000002 48.854844 -5.067214 2.392217 0.000001 -0.000002 3.006299 -5.000180 7.998788 -0.000139 -3.409355 -170.331818 5.189129 179.999991 -0.000005 -1.553003 170.572213 -0.453782 -0.615352 -0.000001 0.000003 -0.176035 63.810735 7.037111 2.117743 25.456952 -7.355614 0.000000 -9.529818 171.230752 -1.490372 -0.000020 -0.000004 -1.069871 -19.291278 0.301348 0.618738 -0.000002 -0.000004 -0.363681 70.421887 -6.881966 -2.060458 25.456957 7.355614 -0.000009 
56.509701 11.439978 105.870995 1.505174 -2.166025 7.788410 -0.957152 0.217732 0.025994 2.088402 0.438370 0.057097 3.733500 0.439022 0.051843 -5.786856 6.995497 0.466393 11.478116 -0.894252 -0.838006 -16.581095 -52.883286 -19.493117 -2.051457 -64.775048 49.072607 -0.000001 -0.000009 0.000002 51.984396 6.252518 -1.806987 -0.000009 0.000030 -3.006861 -5.000201 -7.998735 0.000157 -1.560177 59.447009 1.917218 -136.317667 124.764279 101.999204 -0.000003 0.000007 0.000005 48.137517 -4.948827 2.354278 -0.000000 0.000000 3.006300 -5.000180 7.998784 -0.000141 -3.544451 -170.528828 5.147830 179.999991 -0.000005 -1.535995 170.363769 -0.568856 -0.632584 -0.000001 0.000002 -0.157101 63.908407 7.029868 2.128031 25.456952 -7.355613 0.000000 -9.581202 171.388953 -1.468170 -0.000020 -0.000003 -1.069359 -19.389237 0.379162 0.633494 -0.000002 -0.000004 -0.363407 70.428990 -6.880972 -2.062646 25.456952 7.355618 -0.000011 
56.503902 11.471478 105.896988 1.523385 -2.144265 7.767231 -0.945827 0.216857 0.024127 2.111051 0.435798 0.053963 3.756159 0.436414 0.048743 -6.135241 6.688990 0.440570 11.683920 -0.586376 -0.884561 -16.724125 -53.305364 -19.675127 -1.875776 -64.963835 48.904848 -0.000001 -0.000006 0.000001 51.495084 6.257507 -1.840120 -0.000010 0.000030 -3.006855 -5.000200 -7.998735 0.000154 -1.481080 59.600750 1.842620 -136.141926 124.411226 102.224989 -0.000001 0.000005 -0.000003 47.414579 -4.827357 2.315979 0.000001 -0.000001 3.006302 -5.000183 7.998783 -0.000139 -3.685068 -170.723898 5.105376 179.999991 -0.000004 -1.519002 170.148646 -0.681800 -0.650392 -0.000000 0.000002 -0.138228 64.009111 7.022715 2.138058 25.456957 -7.355611 -0.000000 -9.635996 171.548165 -1.444174 -0.000020 -0.000004 -1.068939 -19.489540 0.455016 0.648213 -0.000002 -0.000004 -0.363110 70.435055 -6.880062 -2.064814 25.456959 7.355615 -0.000012 
56.493603 11.454777 105.874992 1.543820 -2.122452 7.745128 -0.934626 0.215994 0.022307 2.133461 0.433259 0.050917 3.778570 0.433837 0.045726 -6.492984 6.402922 0.414115 11.898671 -0.303783 -0.930667 -16.870453 -53.724205 -19.860525 -1.680426 -65.153516 48.757128 -0.000002 -0.000006 -0.000000 50.998157 6.262127 -1.871744 -0.000007 0.000030 -3.006856 -5.000199 -7.998733 0.000155 -1.408456 59.752769 1.775571 -135.951692 124.065318 102.436076 -0.000003 0.000007 0.000003 46.687553 -4.703045 2.277280 -0.000001 -0.000001 3.006303 -5.000179 7.998785 -0.000142 -3.830342 -170.917998 5.061337 179.999991 -0.000004 -1.501994 169.929724 -0.792600 -0.668751 -0.000001 0.000002 -0.119571 64.111543 7.015730 2.147730 25.456947 -7.355613 -0.000001 -9.694675 171.706448 -1.418299 -0.000021 -0.000003 -1.068560 -19.591870 0.528839 0.662873 -0.000002 -0.000003 -0.362813 70.440492 -6.879171 -2.066923 25.456955 7.355614 -0.000010 
